<svg xmlns="http://www.w3.org/2000/svg" width="19" height="24" viewBox="0 0 19 24">
  <defs>
    <style>
      .cls-1 {
        fill: #7f7f7f;
        fill-rule: evenodd;
      }
    </style>
  </defs>
  <path id="Fill_1" data-name="Fill 1" class="cls-1" d="M305.5,26.475a4.75,4.75,0,1,1,4.688-4.75,4.725,4.725,0,0,1-4.688,4.75m0-10.858a6.109,6.109,0,1,0,6.029,6.108,6.079,6.079,0,0,0-6.029-6.108m8,7.573c0,0.01,0,.02,0,0.03,0,0.025-.02.1-0.044,0.217v0.01a8.06,8.06,0,0,1-.552,1.64c0,0.005,0,.015-0.01.02-0.928,2.229-2.964,5.631-7.394,9.339-4.43-3.708-6.466-7.11-7.394-9.339a0.15,0.15,0,0,1-.011-0.02,8.6,8.6,0,0,1-.551-1.64v-0.01c-0.03-.116-0.039-0.191-0.045-0.217,0-.01,0-0.02,0-0.035a8.154,8.154,0,1,1,16.01.005M305.5,12a9.636,9.636,0,0,0-9.327,11.426c0.006,0.035.026,0.141,0.065,0.322a9.569,9.569,0,0,0,.636,1.9c1.023,2.44,3.272,6.189,8.209,10.2a0.665,0.665,0,0,0,.844,0c4.931-4.015,7.186-7.763,8.209-10.2a9.459,9.459,0,0,0,.635-1.9c0.04-.181.06-0.287,0.065-0.322A10.044,10.044,0,0,0,315,21.62,9.586,9.586,0,0,0,305.5,12" transform="translate(-296 -12)"/>
</svg>
