<?xml version="1.0" encoding="utf-8"?>
<!-- Generator: Adobe Illustrator 28.0.0, SVG Export Plug-In . SVG Version: 6.00 Build 0)  -->
<svg version="1.1" id="Warstwa_1" xmlns="http://www.w3.org/2000/svg" xmlns:xlink="http://www.w3.org/1999/xlink" x="0px" y="0px"
	 viewBox="0 0 315 315" style="enable-background:new 0 0 315 315;" xml:space="preserve">
<g>
	<path d="M204.4,60.8c-0.1-0.5-0.6-0.9-1.2-0.8l-59.4,12.5c-0.5,0.1-0.9,0.7-0.8,1.2l33.7,166.8c0.1,0.6,0.6,0.9,1.2,0.8l59.4-12.4
		c0.5-0.1,0.9-0.7,0.8-1.2L204.4,60.8z"/>
	<path d="M134.2,75.6c-0.1-0.6-0.7-0.9-1.2-0.8L73.7,87.2c-0.6,0.1-0.9,0.7-0.8,1.2l33.7,166.7c0.1,0.6,0.7,0.9,1.2,0.8l59.3-12.4
		c0.6-0.1,0.9-0.7,0.8-1.2L134.2,75.6z"/>
	<path d="M157.1,1C70.5,1,0,71.4,0,158s70.5,157,157.1,157s157.1-70.4,157.1-157S243.8,1,157.1,1z M155.6,290.9
		c-51.1,0-95.4-29.2-117.4-71.7c-0.1-0.2,0-0.5,0.3-0.6l48.8-10.2c0.4-0.1,0.6-0.4,0.5-0.8l-10.9-53.7c-0.1-0.4-0.4-0.6-0.8-0.5
		l-51.9,10.9c-0.2,0.1-0.5-0.1-0.5-0.4c-0.1-1.6-0.1-3.2-0.1-4.9c0-1.3,0-2.5,0.1-3.8c0-0.2,0.1-0.3,0.3-0.4l50.3-10.5
		c0.4-0.1,0.6-0.4,0.5-0.8L63.9,89.9c-0.1-0.4-0.4-0.6-0.8-0.5L41.4,94c-0.2,0-0.4-0.2-0.3-0.4C63.9,54,106.6,27.2,155.6,27.2
		c50.2,0,94,28.2,116.3,69.6c0.2,0.4,0,0.9-0.5,1l-47.5,9.9c-0.4,0.1-0.6,0.4-0.5,0.8l10.9,53.7c0.1,0.4,0.4,0.6,0.8,0.5l51.8-10.9
		c0.2-0.1,0.5,0.1,0.5,0.4c0.1,2.2,0.2,4.5,0.2,6.8c0,0.6,0.2,1.9-0.4,1.9l-50.6,10.7c-0.2,0-0.4,0.3-0.3,0.5l10.9,53.9
		c0.1,0.4,0.4,0.6,0.8,0.5l22.9-4.8c0.3-0.1,0.6,0.3,0.4,0.6C248.8,263.2,205.4,290.9,155.6,290.9z"/>
</g>
</svg>
