<svg xmlns="http://www.w3.org/2000/svg" viewBox="0 0 364.7 364.7"><defs><style>.cls-1{fill:#fff;fill-rule:evenodd;}</style></defs><title>Zasób 4</title><g id="Warstwa_2" data-name="Warstwa 2"><g id="Warstwa_1-2" data-name="Warstwa 1"><path class="cls-1" d="M182.29,12C88.34,12,11.94,88.47,12,182.41s76.49,170.34,170.43,170.3,170.35-76.48,170.31-170.42S276.23,12,182.29,12Zm.13,352.71C81.87,364.74,0,283,0,182.42S81.73,0,182.28,0,364.66,81.74,364.7,182.28,283,364.66,182.42,364.7Zm112.29-98.42,14.39-3A149.92,149.92,0,0,1,48.92,251.62l49.29-10.29q-6.79-32.81-13.57-65.58-26.1,5.42-52.19,10.84c0-1.16,0-2.3,0-3.46,0-1.64,0-3.27.08-4.9Q57.63,173,82.77,167.74h.16c-4.79-23.06-14.33-69.2-14.33-69.2l-11.71,2.32A149.9,149.9,0,0,1,310,104.32q-21.63,4.5-43.26,9,7.47,36,15,72.13,25.18-5.24,50.34-10.42c.15,2.67.22,5.33.22,8v.2l-52.3,11c-.09,0-.16.09-.25.12Q287.23,230.32,294.71,266.28ZM182.3,21.19c-89.32,0-161.71,72.54-161.67,162S93.1,345,182.41,345,344.1,272.42,344.07,183,271.6,21.16,182.3,21.19Zm27.89,262.74L167.32,78.26l74.21-15.59,43,205.82ZM78.19,94h.16l78-16.34q21.39,102.85,42.79,205.8l-.07.1q-39,8.09-77.94,16.17S92.49,162.48,78.19,94Z"/></g></g></svg>