<svg xmlns="http://www.w3.org/2000/svg" width="22" height="24" viewBox="0 0 22 24">
  <defs>
    <style>
      .cls-1 {
        fill: #fff;
        fill-rule: evenodd;
      }
    </style>
  </defs>
  <path id="Fill_1" data-name="Fill 1" class="cls-1" d="M1508.27,27.8h13.04a2.713,2.713,0,0,0,2.69-2.723V19.428c0-.01-0.01-0.025-0.01-0.035V19.364a0.041,0.041,0,0,1-.01-0.035,0.036,0.036,0,0,1-.01-0.03,0.036,0.036,0,0,1-.01-0.029,0.23,0.23,0,0,1-.02-0.035,0.137,0.137,0,0,0-.01-0.025l-0.02-.03c0-.01-0.01-0.015-0.01-0.024a0.052,0.052,0,0,1-.02-0.03c-0.01-.01-0.01-0.015-0.02-0.024a0.044,0.044,0,0,1-.02-0.025,0.044,0.044,0,0,1-.02-0.024,0.027,0.027,0,0,0-.02-0.02l-0.02-.024c-0.01-.005-0.02-0.015-0.03-0.02s-0.02-.015-0.03-0.02-0.01-.01-0.02-0.015a0.1,0.1,0,0,1-.03-0.02l-0.06-.029-0.03-.015c-0.01,0-.02,0-0.03-0.01a0.072,0.072,0,0,0-.03-0.01c-0.01,0-.02,0-0.03,0a0.062,0.062,0,0,0-.03-0.005c-0.01,0-.01,0-0.02,0l-16.54-2.313V14.135a0.023,0.023,0,0,0-.01-0.02V14.071a0.058,0.058,0,0,1-.01-0.04c0-.01-0.01-0.015-0.01-0.024l-0.01-.044s-0.01-.015-0.01-0.02a0.074,0.074,0,0,0-.02-0.039v-0.02c-0.01-.01-0.01-0.02-0.02-0.029s-0.01-.015-0.02-0.025-0.01-.015-0.01-0.025a0.051,0.051,0,0,1-.02-0.03l-0.05-.044-0.01-.015a0.133,0.133,0,0,0-.04-0.03c0-.005-0.01-0.01-0.01-0.015s-0.02-.015-0.03-0.024-0.03-.02-0.04-0.025l-0.02-.01-0.06-.03-3.59-1.529a0.653,0.653,0,0,0-.86.355,0.674,0.674,0,0,0,.35.873l3.18,1.362v14.59a2.72,2.72,0,0,0,2.34,2.7,2.8,2.8,0,0,0-.37,1.381,2.65,2.65,0,1,0,5.3,0,2.607,2.607,0,0,0-.37-1.357h5.91a2.711,2.711,0,0,0-.36,1.357,2.65,2.65,0,1,0,2.65-2.689h-12.41a1.381,1.381,0,0,1-1.37-1.391V27.428A2.687,2.687,0,0,0,1508.27,27.8Zm3.73,5.7a1.5,1.5,0,1,1-1.5-1.5A1.5,1.5,0,0,1,1512,33.5Zm10,0a1.5,1.5,0,1,1-1.5-1.5A1.5,1.5,0,0,1,1522,33.5Zm-0.39-6.5h-13.22a1.426,1.426,0,0,1-1.39-1.458V18l16,2.311v5.226A1.431,1.431,0,0,1,1521.61,27Z" transform="translate(-1502 -12)"/>
</svg>
