<svg xmlns="http://www.w3.org/2000/svg" width="20" height="24" viewBox="0 0 20 24">
  <defs>
    <style>
      .cls-1 {
        fill: #7f7f7f;
        fill-rule: evenodd;
      }
    </style>
  </defs>
  <path id="Fill_1" data-name="Fill 1" class="cls-1" d="M1259,31.065V31.05c0-.04-0.01-0.08-0.01-0.124-0.03-.984-0.09-3.285-2.2-4.02a0.306,0.306,0,0,1-.05-0.015,13.847,13.847,0,0,1-4.04-1.879,0.653,0.653,0,0,0-.92.164,0.685,0.685,0,0,0,.16.934,15.123,15.123,0,0,0,4.45,2.072c1.13,0.413,1.26,1.65,1.29,2.783a0.5,0.5,0,0,0,.01.124,10.811,10.811,0,0,1-.1,1.536,19.1,19.1,0,0,1-17.18,0,9.522,9.522,0,0,1-.1-1.536c0-.04.01-0.079,0.01-0.124,0.03-1.133.16-2.37,1.29-2.783a15.262,15.262,0,0,0,4.45-2.072,0.685,0.685,0,0,0,.16-0.934,0.654,0.654,0,0,0-.92-0.164,13.694,13.694,0,0,1-4.04,1.879c-0.02,0-.03.01-0.05,0.015-2.11.741-2.17,3.042-2.2,4.021a0.5,0.5,0,0,1-.01.124V31.06a7.889,7.889,0,0,0,.25,2.251,0.675,0.675,0,0,0,.25.313,20.2,20.2,0,0,0,19.01,0,0.618,0.618,0,0,0,.25-0.313,8.14,8.14,0,0,0,.24-2.246m-13.74-13.732v-0.04c0.16-3.564,2.64-3.946,3.7-3.946h0.06c1.32,0.03,3.55.576,3.7,3.946a0.053,0.053,0,0,0,.01.04c0,0.035.34,3.414-1.21,5.194a3.149,3.149,0,0,1-2.5,1.064h-0.05a3.135,3.135,0,0,1-2.5-1.064c-1.55-1.769-1.22-5.164-1.21-5.194m3.65,7.6h0.16a4.438,4.438,0,0,0,3.43-1.516c1.88-2.157,1.57-5.855,1.53-6.208a5.092,5.092,0,0,0-2.36-4.508,5.328,5.328,0,0,0-2.62-.7h-0.08a5.341,5.341,0,0,0-2.62.681,5.093,5.093,0,0,0-2.39,4.528c-0.04.353-.35,4.05,1.53,6.208a4.417,4.417,0,0,0,3.42,1.516" transform="translate(-1239 -12)"/>
</svg>
